<svg id="Capa_1" enable-background="new 0 0 512 512" height="512" viewBox="0 0 512 512" width="512" xmlns="http://www.w3.org/2000/svg"><g><path d="m194.078 166.271 61.922-61.923 61.923 61.923 21.213-21.213-61.923-61.923 61.923-61.922-21.213-21.213-61.923 61.923-61.922-61.923-21.213 21.213 61.922 61.922-61.922 61.923z"/><path d="m440.797 372.203h37.469v139.797h-37.469z"/><path d="m33.734 372.203h37.469v139.797h-37.469z"/><path d="m101.203 372.203h309.594v72.328h-309.594z"/><path d="m0 304.734h512v37.469h-512z"/><path d="m343.328 274.734v-36.487c0-19.631-15.971-35.602-35.602-35.602h-103.452c-19.631 0-35.602 15.971-35.602 35.602v36.487z"/><path d="m138.672 474.531h30v37.469h-30z"/><path d="m343.328 474.531h30v37.469h-30z"/></g></svg>