<?xml version="1.0" encoding="UTF-8"?>
<svg xmlns="http://www.w3.org/2000/svg" id="Icons" viewBox="0 0 60 60" width="512" height="512"><path d="M17,17H35a3,3,0,0,0,3-3V8a3,3,0,0,0-3-3H17a3,3,0,0,0-3,3v6A3,3,0,0,0,17,17ZM16,8a1,1,0,0,1,1-1H35a1,1,0,0,1,1,1v6a1,1,0,0,1-1,1H17a1,1,0,0,1-1-1Z"/><path d="M15,23H37a1,1,0,0,0,0-2H15a1,1,0,0,0,0,2Z"/><path d="M15,30H32a1,1,0,0,0,0-2H15a1,1,0,0,0,0,2Z"/><path d="M15,37H25a1,1,0,0,0,0-2H15a1,1,0,0,0,0,2Z"/><path d="M15,44h9a1,1,0,0,0,0-2H15a1,1,0,0,0,0,2Z"/><path d="M37,49H15a1,1,0,0,0,0,2H37a1,1,0,0,0,0-2Z"/><path d="M55.307,15.335a4.558,4.558,0,0,0-6.446,0L48,16.2V4a4,4,0,0,0-4-4H8A4,4,0,0,0,4,4V5H3a3,3,0,0,0,0,6H4v5H3a3,3,0,0,0,0,6H4v5H3a3,3,0,0,0,0,6H4v5H3a3,3,0,0,0,0,6H4v5H3a3,3,0,0,0,0,6H4v1a4,4,0,0,0,4,4H44a4,4,0,0,0,4-4V35.805L58.666,25.139a4.565,4.565,0,0,0,0-6.446ZM44.533,22.491l2.781,2.781L34.462,38.124l-2.781-2.781ZM30.213,37.523a2.707,2.707,0,0,1,.194-.626l6.7,6.7a2.738,2.738,0,0,1-.624.193L29.233,45a.191.191,0,0,1-.173-.057A.187.187,0,0,1,29,44.772Zm8.444,4.8-2.781-2.781L48.728,26.686l2.781,2.781Zm7.29-21.242,1.943-1.943,6.976,6.976-1.943,1.943ZM2,8A1,1,0,0,1,3,7H7A1,1,0,0,1,7,9H3A1,1,0,0,1,2,8ZM2,19a1,1,0,0,1,1-1H7a1,1,0,0,1,0,2H3A1,1,0,0,1,2,19ZM2,30a1,1,0,0,1,1-1H7a1,1,0,0,1,0,2H3A1,1,0,0,1,2,30ZM2,41a1,1,0,0,1,1-1H7a1,1,0,0,1,0,2H3A1,1,0,0,1,2,41ZM2,52a1,1,0,0,1,1-1H7a1,1,0,0,1,0,2H3A1,1,0,0,1,2,52Zm44,4a2,2,0,0,1-2,2H8a2,2,0,0,1-2-2V55H7a3,3,0,0,0,0-6H6V44H7a3,3,0,0,0,0-6H6V33H7a3,3,0,0,0,0-6H6V22H7a3,3,0,0,0,0-6H6V11H7A3,3,0,0,0,7,5H6V4A2,2,0,0,1,8,2H44a2,2,0,0,1,2,2V18.2L29.563,34.632a4.715,4.715,0,0,0-1.323,2.559l-1.212,7.257A2.2,2.2,0,0,0,29.206,47a2.34,2.34,0,0,0,.352-.028l7.253-1.211a4.716,4.716,0,0,0,2.557-1.323L46,37.805ZM57.252,23.725l-.972.971L49.3,17.72l.971-.971a2.559,2.559,0,0,1,3.618,0l3.359,3.358A2.562,2.562,0,0,1,57.252,23.725Z"/></svg>
