<svg id="Capa_1" enable-background="new 0 0 512 512" height="512" viewBox="0 0 512 512" width="512" xmlns="http://www.w3.org/2000/svg"><g><path d="m255.47 229.006h-16.696c.072 24.021.008 14.723.1 34.392 6.149-.03 12.727-.06 16.596-.06 9.648 0 17.796-7.858 17.796-17.166 0-9.297-8.148-17.166-17.796-17.166z"/><path d="m314.457 174.189-58.416-59.486-57.957 59.446c-1.12 1.15-2.409 2.11-3.829 2.849l-76.892 39.901 40.491 72.503c.95 1.7 1.55 3.559 1.79 5.479l10.788 87.67 82.581-18.266c2.14-.47 4.349-.47 6.488.01l82.151 18.256 11.217-87.74c.24-1.88.83-3.689 1.75-5.349l40.101-72.563-76.502-39.921c-1.392-.73-2.662-1.669-3.761-2.789zm-58.987 119.142c-3.879 0-10.548.03-16.736.06v34.592c0 8.278-6.718 14.997-14.997 14.997-8.278 0-14.997-6.718-14.997-14.997v-113.923c0-8.207 6.683-15.047 14.997-15.047h31.733c26.354 0 47.789 21.155 47.789 47.159s-21.435 47.159-47.789 47.159z"/><path d="m436.978 75.022c-100.027-100.028-261.926-100.031-361.956 0-100.028 100.028-100.031 261.925 0 361.956 100.027 100.028 261.926 100.031 361.956 0 100.028-100.028 100.031-261.926 0-361.956zm-8.578 142.937-46.149 83.501-12.937 101.197c-1.128 8.728-9.506 14.655-18.136 12.737l-94.938-21.095-95.438 21.095c-8.652 1.906-17.039-4.049-18.126-12.807l-12.447-101.127-46.599-83.441c-4.122-7.406-1.305-16.732 6.189-20.625l88.47-45.909 66.974-68.694c5.804-5.948 15.479-6.122 21.435-.04l67.494 68.734 88.02 45.929c7.456 3.895 10.262 13.17 6.188 20.545z"/></g></svg>